<svg width="104" height="153" viewBox="0 0 104 153" fill="none" xmlns="http://www.w3.org/2000/svg">
<path d="M82.1225 102.234L79.4083 106.888L74.3475 97.5802H61.6296L78.9681 129.475L88.254 113.535L97.5399 97.5802H84.8214L82.1225 102.234Z" fill="url(#paint0_linear_0_1)"/>
<path d="M51.5776 0C42.9948 0.062672 34.5349 2.02532 26.8155 5.74468C17.5658 10.1053 10.1231 17.5052 5.75054 26.6879C-3.7405 46.598 -0.76263 66.3044 9.41788 80.6015L25.7154 108.598L51.5776 153L67.7138 125.367L51.5776 91.9166H87.1648L93.7365 80.6305C99.1823 72.9731 102.401 63.9793 103.042 54.6316C103.682 45.2839 101.72 35.9414 97.37 27.6238C93.0192 19.3064 86.447 12.3339 78.3723 7.46751C70.2965 2.60117 61.0274 0.0280528 51.5776 0.0291142V0ZM51.5776 76.5C46.4538 76.5 41.4449 74.9932 37.1849 72.1712C32.9246 69.3491 29.6041 65.3379 27.6434 60.645C25.6828 55.9521 25.1696 50.7869 26.1692 45.8048C27.1688 40.8227 29.6362 36.2461 33.259 32.6542C36.8821 29.0621 41.4981 26.6162 46.5233 25.6251C51.5488 24.6342 56.7576 25.1426 61.4913 27.0866C66.2249 29.0306 70.2707 32.3227 73.1174 36.5464C75.9636 40.7702 77.4835 45.7357 77.4835 50.8156C77.4835 57.6277 74.754 64.1608 69.8957 68.9771C65.0374 73.794 58.4484 76.5 51.5776 76.5Z" fill="url(#paint1_linear_0_1)"/>
<defs>
<linearGradient id="paint0_linear_0_1" x1="79.5839" y1="129.475" x2="79.5839" y2="97.5802" gradientUnits="userSpaceOnUse">
<stop stop-color="#2E3192"/>
<stop offset="0.19" stop-color="#2155AD"/>
<stop offset="0.44" stop-color="#137CC9"/>
<stop offset="0.66" stop-color="#0897DE"/>
<stop offset="0.85" stop-color="#02A8EB"/>
<stop offset="1" stop-color="#00AEEF"/>
</linearGradient>
<linearGradient id="paint1_linear_0_1" x1="51.5776" y1="153" x2="51.5776" y2="0" gradientUnits="userSpaceOnUse">
<stop stop-color="#2E3192"/>
<stop offset="0.19" stop-color="#2155AD"/>
<stop offset="0.44" stop-color="#137CC9"/>
<stop offset="0.66" stop-color="#0897DE"/>
<stop offset="0.85" stop-color="#02A8EB"/>
<stop offset="1" stop-color="#00AEEF"/>
</linearGradient>
</defs>
</svg>
